<!DOCTYPE svg PUBLIC "-//W3C//DTD SVG 1.1//EN" "http://www.w3.org/Graphics/SVG/1.1/DTD/svg11.dtd">
<!-- Uploaded to: SVG Repo, www.svgrepo.com, Transformed by: SVG Repo Mixer Tools -->
<svg version="1.1" id="Uploaded to svgrepo.com" xmlns="http://www.w3.org/2000/svg" xmlns:xlink="http://www.w3.org/1999/xlink" width="800px" height="800px" viewBox="0 0 32 32" xml:space="preserve" fill="#ffffff">
<g id="SVGRepo_bgCarrier" stroke-width="0"/>
<g id="SVGRepo_tracerCarrier" stroke-linecap="round" stroke-linejoin="round"/>
<g id="SVGRepo_iconCarrier"> <style type="text/css"> .feather_een{fill:#ffffff;} </style> <path class="feather_een" d="M25,17c-1.323,0-2.488,0.651-3.216,1.641L17.031,16l4.753-2.641C22.512,14.349,23.676,15,25,15 c2.209,0,4-1.791,4-4c0-2.209-1.791-4-4-4c-2.209,0-4,1.791-4,4c0,0.526,0.108,1.026,0.292,1.487L16.5,15.15v-5.2 C18.47,9.701,20,8.038,20,6c0-2.209-1.791-4-4-4c-2.209,0-4,1.791-4,4c0,2.038,1.53,3.701,3.5,3.95v5.2l-4.793-2.663 C10.892,12.026,11,11.526,11,11c0-2.209-1.791-4-4-4c-2.209,0-4,1.791-4,4c0,2.209,1.791,4,4,4c1.324,0,2.488-0.651,3.216-1.641 L14.969,16l-4.754,2.641C9.488,17.651,8.324,17,7,17c-2.209,0-4,1.791-4,4c0,2.209,1.791,4,4,4c2.209,0,4-1.791,4-4 c0-0.526-0.108-1.026-0.293-1.487L15.5,16.85v5.2C13.53,22.299,12,23.962,12,26c0,2.209,1.791,4,4,4c2.209,0,4-1.791,4-4 c0-2.038-1.53-3.701-3.5-3.95v-5.2l4.793,2.663C21.108,19.973,21,20.473,21,21c0,2.209,1.791,4,4,4c2.209,0,4-1.791,4-4 C29,18.791,27.209,17,25,17z M25,8c1.654,0,3,1.346,3,3c0,1.654-1.346,3-3,3c-1.654,0-3-1.346-3-3C22,9.346,23.346,8,25,8z M7,14 c-1.654,0-3-1.346-3-3c0-1.654,1.346-3,3-3c1.654,0,3,1.346,3,3C10,12.654,8.654,14,7,14z M7,24c-1.654,0-3-1.346-3-3 c0-1.654,1.346-3,3-3c1.654,0,3,1.346,3,3C10,22.654,8.654,24,7,24z M13,6c0-1.654,1.346-3,3-3c1.654,0,3,1.346,3,3 c0,1.654-1.346,3-3,3C14.346,9,13,7.654,13,6z M19,26c0,1.654-1.346,3-3,3c-1.654,0-3-1.346-3-3c0-1.654,1.346-3,3-3 C17.654,23,19,24.346,19,26z M25,24c-1.654,0-3-1.346-3-3c0-1.654,1.346-3,3-3c1.654,0,3,1.346,3,3C28,22.654,26.654,24,25,24z"/> </g>
</svg>