<!DOCTYPE svg PUBLIC "-//W3C//DTD SVG 1.1//EN" "http://www.w3.org/Graphics/SVG/1.1/DTD/svg11.dtd">
<!-- Uploaded to: SVG Repo, www.svgrepo.com, Transformed by: SVG Repo Mixer Tools -->
<svg version="1.1" id="Icons" xmlns="http://www.w3.org/2000/svg" xmlns:xlink="http://www.w3.org/1999/xlink" viewBox="0 0 32 32" xml:space="preserve" width="800px" height="800px" fill="#ffffff" stroke="#ffffff">
<g id="SVGRepo_bgCarrier" stroke-width="0"/>
<g id="SVGRepo_tracerCarrier" stroke-linecap="round" stroke-linejoin="round"/>
<g id="SVGRepo_iconCarrier"> <style type="text/css"> .st0{fill:none;stroke:#ffffff;stroke-width:2;stroke-linecap:round;stroke-linejoin:round;stroke-miterlimit:10;} </style> <line class="st0" x1="2" y1="7" x2="16" y2="7"/> <line class="st0" x1="2" y1="23" x2="16" y2="23"/> <line class="st0" x1="8" y1="26" x2="10" y2="26"/> <path class="st0" d="M16,23v4c0,1.1-0.9,2-2,2H4c-1.1,0-2-0.9-2-2V5c0-1.1,0.9-2,2-2h10c1.1,0,2,0.9,2,2v2"/> <path class="st0" d="M8,12v6c0,1.1,0.9,2,2,2h4.2c0.5,0,1-0.2,1.4-0.6l2-2c0.8-0.8,2-0.8,2.8,0l2,2c0.4,0.4,0.9,0.6,1.4,0.6H28 c1.1,0,2-0.9,2-2v-6c0-1.1-0.9-2-2-2H10C8.9,10,8,10.9,8,12z"/> <circle class="st0" cx="13" cy="15" r="2"/> <circle class="st0" cx="25" cy="15" r="2"/> </g>
</svg>